<svg xmlns="http://www.w3.org/2000/svg" width="52" height="45" viewBox="0 -13 52 80" fill="none">
  <path d="M26.4371 19.1661C23.6168 19.1661 21.2025 18.2278 19.1941 16.3511C17.1857 14.4744 16.1815 12.2184 16.1815 9.58306C16.1815 6.94772 17.1857 4.69171 19.1941 2.81502C21.2025 0.938339 23.6168 0 26.4371 0C29.2574 0 31.6718 0.938339 33.6802 2.81502C35.6886 4.69171 36.6927 6.94772 36.6927 9.58306C36.6927 12.2184 35.6886 14.4744 33.6802 16.3511C31.6718 18.2278 29.2574 19.1661 26.4371 19.1661ZM0.988037 44.0111V39.397C0.988037 38.0956 1.41535 36.8682 2.26999 35.7146C3.12462 34.5611 4.27996 33.659 5.736 33.0083C9.21785 31.4703 12.6839 30.3168 16.1341 29.5478C19.5842 28.7788 23.0186 28.3943 26.4371 28.3943C29.8557 28.3943 33.29 28.7788 36.7402 29.5478C40.1904 30.3168 43.6564 31.4703 47.1383 33.0083C48.5943 33.659 49.7497 34.5611 50.6043 35.7146C51.4589 36.8682 51.8862 38.0956 51.8862 39.397V44.0111H0.988037ZM3.6469 41.5266H49.2274V39.397C49.2274 38.5689 48.9267 37.7851 48.3253 37.0456C47.7239 36.3062 46.885 35.6703 45.8088 35.1379C42.7701 33.7773 39.6147 32.7273 36.3426 31.9879C33.0706 31.2485 29.7688 30.8788 26.4371 30.8788C23.1056 30.8788 19.8038 31.2485 16.5316 31.9879C13.2595 32.7273 10.1041 33.7773 7.06543 35.1379C5.98923 35.6703 5.15042 36.3062 4.54901 37.0456C3.9476 37.7851 3.6469 38.5689 3.6469 39.397V41.5266ZM26.4371 16.6816C28.5262 16.6816 30.3146 15.9866 31.8023 14.5964C33.29 13.2063 34.0339 11.5352 34.0339 9.58306C34.0339 7.63096 33.29 5.95984 31.8023 4.5697C30.3146 3.17957 28.5262 2.4845 26.4371 2.4845C24.348 2.4845 22.5596 3.17957 21.0719 4.5697C19.5842 5.95984 18.8404 7.63096 18.8404 9.58306C18.8404 11.5352 19.5842 13.2063 21.0719 14.5964C22.5596 15.9866 24.348 16.6816 26.4371 16.6816Z" fill="#B8C1CA"/>
</svg>
